<?xml version="1.0" standalone="no"?>
<!DOCTYPE svg PUBLIC "-//W3C//DTD SVG 20010904//EN"
 "http://www.w3.org/TR/2001/REC-SVG-20010904/DTD/svg10.dtd">
<svg version="1.0" xmlns="http://www.w3.org/2000/svg"
 width="260.000000pt" height="280.000000pt" viewBox="0 0 260.000000 280.000000"
 preserveAspectRatio="xMidYMid meet">

<g transform="translate(0.000000,280.000000) scale(0.100000,-0.100000)"
fill="#000000" stroke="none">
<path d="M1618 2503 c5 -21 7 -23 10 -9 2 10 0 22 -6 28 -6 6 -7 0 -4 -19z"/>
<path d="M2146 2304 c-39 -40 -37 -103 5 -138 17 -14 42 -26 55 -26 64 0 113
58 99 119 -15 69 -108 95 -159 45z m118 -26 c9 -12 16 -30 16 -39 0 -27 -39
-69 -66 -69 -53 0 -84 72 -47 112 23 26 78 24 97 -4z"/>
<path d="M745 2019 c-4 -6 -5 -12 -2 -15 2 -3 7 2 10 11 7 17 1 20 -8 4z"/>
<path d="M678 1983 c7 -3 16 -2 19 1 4 3 -2 6 -13 5 -11 0 -14 -3 -6 -6z"/>
<path d="M1210 1986 c0 -2 7 -7 16 -10 8 -3 12 -2 9 4 -6 10 -25 14 -25 6z"/>
<path d="M1040 1880 c-11 -7 -8 -9 15 -9 17 1 44 5 60 9 27 7 26 8 -15 9 -25
0 -52 -4 -60 -9z"/>
<path d="M634 1855 c16 -8 39 -12 52 -9 13 4 31 1 39 -6 7 -6 24 -10 37 -8
l23 3 -25 14 c-13 8 -54 16 -89 17 -62 3 -64 2 -37 -11z"/>
<path d="M921 1754 c-2 -40 12 -114 21 -114 6 0 8 12 5 28 -16 75 -25 105 -26
86z"/>
<path d="M854 1735 c1 -33 16 -33 16 0 0 14 -4 25 -9 25 -5 0 -8 -11 -7 -25z"/>
<path d="M871 1681 c0 -8 -8 -11 -21 -8 -30 8 -33 -8 -5 -23 30 -16 38 -10 32
22 -2 12 -5 17 -6 9z"/>
<path d="M870 1560 c0 -26 -3 -30 -22 -25 -14 3 -47 -7 -83 -25 l-60 -30 99 0
99 0 -7 38 c-3 20 -6 45 -6 55 0 9 -4 17 -10 17 -5 0 -10 -14 -10 -30z"/>
<path d="M940 1536 l0 -54 69 -4 c38 -2 67 0 64 5 -2 4 -8 7 -14 7 -5 0 -29 9
-54 21 -38 18 -45 26 -45 50 0 16 -4 29 -10 29 -5 0 -10 -24 -10 -54z"/>
<path d="M1490 1581 c-28 -7 -90 -39 -90 -46 0 -3 38 -5 85 -5 l85 0 0 30 c0
26 -3 30 -27 29 -16 -1 -39 -4 -53 -8z"/>
<path d="M1610 1561 l0 -31 118 0 c79 0 112 3 102 10 -8 5 -21 10 -29 10 -8 0
-19 7 -25 15 -7 10 -37 17 -88 21 l-78 7 0 -32z"/>
<path d="M1407 1464 c-3 -4 0 -16 8 -28 8 -11 15 -27 15 -34 0 -26 28 -42 74
-42 37 0 46 3 46 18 0 9 3 34 6 55 l7 37 -75 0 c-41 0 -78 -3 -81 -6z"/>
<path d="M1604 1461 c-2 -2 -4 -26 -4 -53 l0 -48 78 0 c67 0 79 3 90 21 8 12
21 19 35 17 18 -2 23 2 25 29 l3 32 -111 3 c-62 2 -114 1 -116 -1z m64 -71 c6
0 12 -4 12 -10 0 -5 -9 -10 -20 -10 -11 0 -20 4 -20 10 0 5 -7 7 -15 4 -8 -4
-15 -1 -15 6 0 8 8 10 23 6 12 -3 28 -6 35 -6z"/>
<path d="M700 1390 l0 -30 105 0 c109 0 115 3 99 44 -5 13 -24 16 -105 16
l-99 0 0 -30z"/>
<path d="M952 1393 l3 -28 122 -1 c67 0 120 3 117 8 -3 4 -12 8 -20 8 -8 0
-14 5 -14 10 0 12 -33 13 -45 1 -6 -5 -25 -12 -42 -16 -31 -6 -33 -5 -33 19 0
24 -3 26 -46 26 -44 0 -45 -1 -42 -27z"/>
<path d="M1334 1373 c-18 -13 -17 -14 11 -7 46 10 63 22 33 22 -13 0 -33 -7
-44 -15z"/>
<path d="M866 1303 c37 -5 44 -20 44 -104 0 -47 -4 -59 -22 -72 -23 -16 -23
-16 10 -16 l33 -1 -6 68 c-12 134 -11 132 -53 130 -35 -1 -36 -1 -6 -5z"/>
<path d="M964 1273 c3 -21 6 -49 6 -62 0 -20 2 -21 15 -11 8 7 15 9 15 4 0 -5
4 -3 9 5 7 11 12 4 20 -24 6 -21 8 -42 5 -47 -3 -4 1 -8 8 -9 7 0 21 -2 31 -4
14 -3 17 4 17 41 0 32 -3 42 -13 38 -8 -3 -20 2 -27 11 -7 8 -18 15 -25 15
-21 0 -45 35 -38 58 4 16 1 22 -12 22 -15 0 -17 -6 -11 -37z m116 -104 c0 -11
-3 -11 -24 -3 -23 9 -20 23 4 17 11 -3 20 -9 20 -14z"/>
<path d="M1510 1292 c0 -10 -11 -29 -25 -42 -30 -28 -23 -43 16 -35 26 6 29 4
29 -17 0 -15 -3 -19 -8 -11 -5 7 -35 16 -68 19 l-59 6 3 -47 c4 -51 22 -44 22
8 0 15 3 27 8 27 4 0 6 -17 4 -39 -4 -37 -3 -38 35 -44 62 -11 66 -10 59 17
-3 13 -2 26 3 28 4 2 11 36 13 76 5 65 4 72 -13 72 -12 0 -19 -7 -19 -18z m-3
-108 c-3 -3 -12 -4 -19 -1 -8 3 -5 6 6 6 11 1 17 -2 13 -5z"/>
<path d="M1595 1300 c-7 -12 2 -12 30 0 19 8 19 9 -2 9 -12 1 -25 -3 -28 -9z"/>
<path d="M1220 1260 c0 -5 5 -10 10 -10 6 0 10 5 10 10 0 6 -4 10 -10 10 -5 0
-10 -4 -10 -10z"/>
<path d="M1592 1215 c-1 -33 -5 -70 -8 -82 -6 -21 -3 -23 30 -23 26 0 34 4 30
14 -3 8 -14 16 -24 19 -16 4 -20 16 -23 68 l-3 64 -2 -60z"/>
<path d="M1155 1205 c-16 -8 -25 -15 -20 -15 6 -1 29 -3 53 -6 38 -5 42 -4 42
15 0 25 -28 27 -75 6z"/>
<path d="M1280 1164 l0 -55 32 4 c30 3 33 7 40 47 9 49 1 60 -44 60 -27 0 -28
-2 -28 -56z m58 -39 c-3 -3 -9 2 -12 12 -6 14 -5 15 5 6 7 -7 10 -15 7 -18z"/>
<path d="M982 1143 c-1 -32 0 -35 8 -15 10 24 26 31 16 6 -3 -8 -2 -13 3 -10
16 10 10 56 -8 56 -13 0 -17 -10 -19 -37z"/>
<path d="M1680 637 c0 -8 11 -24 25 -37 34 -32 33 -74 -1 -97 -24 -15 -29 -15
-53 -2 -14 8 -27 24 -29 36 -2 11 -12 29 -23 39 -18 17 -19 16 -19 -20 0 -51
15 -75 57 -92 98 -42 180 81 104 157 -31 30 -61 38 -61 16z"/>
<path d="M836 594 c-11 -28 -6 -79 9 -101 24 -34 76 -47 118 -29 41 17 57 42
57 88 0 71 -28 71 -40 -1 -3 -24 -14 -40 -31 -50 -24 -13 -29 -13 -53 2 -17
12 -26 27 -26 45 0 15 -7 35 -14 45 -12 16 -14 16 -20 1z"/>
<path d="M603 95 c0 -27 2 -38 4 -22 2 15 8 27 13 27 5 0 11 -12 13 -27 4 -26
4 -26 6 5 1 22 -4 32 -13 32 -8 0 -17 8 -19 18 -3 9 -5 -5 -4 -33z"/>
<path d="M1102 95 c0 -27 2 -43 5 -35 3 8 13 24 22 35 15 18 15 19 -1 7 -14
-12 -17 -10 -21 15 -2 16 -4 6 -5 -22z"/>
<path d="M719 119 c-8 -20 4 -62 19 -65 7 -1 8 0 2 3 -15 7 -12 43 4 43 8 0
16 -10 18 -22 2 -12 9 -23 16 -24 7 -1 8 0 2 3 -12 6 -13 40 -1 45 5 2 3 9 -5
16 -8 7 -14 8 -14 2 0 -14 -27 -13 -32 2 -3 8 -6 7 -9 -3z"/>
<path d="M949 118 c-2 -25 3 -53 11 -62 5 -5 6 1 3 14 -3 12 -1 25 4 29 7 4 6
11 -3 19 -11 10 -14 10 -15 0z"/>
<path d="M1500 125 c-1 -5 -1 -21 0 -34 1 -13 -4 -28 -12 -32 -9 -6 -3 -9 17
-9 17 0 25 4 18 8 -6 4 -13 23 -16 42 -2 19 -5 31 -7 25z"/>
<path d="M1552 105 c-22 -28 -23 -30 -5 -34 10 -2 21 -8 24 -13 10 -15 16 14
10 47 l-6 29 -23 -29z m14 -22 c-10 -10 -19 5 -10 18 6 11 8 11 12 0 2 -7 1
-15 -2 -18z"/>
<path d="M1604 115 c-4 -8 -1 -22 6 -30 6 -8 9 -19 5 -25 -3 -5 -4 -10 -1 -10
10 0 33 55 29 68 -6 17 -32 15 -39 -3z m28 -10 c0 -5 -5 -11 -11 -13 -6 -2
-11 4 -11 13 0 9 5 15 11 13 6 -2 11 -8 11 -13z"/>
<path d="M1672 105 c-22 -28 -23 -30 -5 -34 10 -2 21 -8 24 -13 10 -15 16 14
10 47 l-6 29 -23 -29z m14 -22 c-10 -10 -19 5 -10 18 6 11 8 11 12 0 2 -7 1
-15 -2 -18z"/>
<path d="M1724 115 c-4 -8 -1 -22 6 -30 6 -8 9 -19 5 -25 -3 -5 -4 -10 -1 -10
10 0 33 55 29 68 -6 17 -32 15 -39 -3z m28 -10 c0 -5 -5 -11 -11 -13 -6 -2
-11 4 -11 13 0 9 5 15 11 13 6 -2 11 -8 11 -13z"/>
<path d="M1797 123 c22 -4 22 -6 8 -33 -22 -42 -17 -51 5 -10 25 46 25 50 -7
49 -24 -2 -25 -2 -6 -6z"/>
<path d="M1845 120 c-4 -6 1 -7 11 -3 13 5 16 3 11 -10 -3 -9 -2 -19 4 -22 14
-9 -1 -27 -18 -21 -8 3 -11 1 -8 -4 9 -14 32 -12 38 3 14 38 -19 88 -38 57z"/>
<path d="M1920 125 c-1 -5 -1 -21 0 -34 1 -13 -4 -28 -12 -32 -9 -6 -3 -9 17
-9 17 0 25 4 18 8 -6 4 -13 23 -16 42 -2 19 -5 31 -7 25z"/>
<path d="M1965 120 c-4 -6 1 -7 11 -3 13 5 16 3 11 -10 -3 -9 -2 -19 4 -22 14
-9 -1 -27 -18 -21 -8 3 -11 1 -8 -4 8 -14 32 -13 37 2 13 39 -18 88 -37 58z"/>
<path d="M2024 115 c-4 -8 -1 -22 6 -30 6 -8 9 -19 5 -25 -3 -5 -4 -10 -1 -10
10 0 33 55 29 68 -6 17 -32 15 -39 -3z m28 -10 c0 -5 -5 -11 -11 -13 -6 -2
-11 4 -11 13 0 9 5 15 11 13 6 -2 11 -8 11 -13z"/>
<path d="M550 93 c0 -10 4 -14 8 -8 4 6 11 13 16 18 5 4 2 7 -7 7 -10 0 -17
-8 -17 -17z"/>
<path d="M661 83 c-1 -27 3 -33 19 -33 16 0 20 6 19 33 -2 30 -2 30 -6 5 -6
-36 -20 -36 -26 0 -4 25 -4 25 -6 -5z"/>
<path d="M807 104 c-13 -13 -7 -24 14 -24 11 0 19 5 17 12 -5 14 -22 21 -31
12z"/>
<path d="M861 78 c2 -28 2 -29 6 -8 3 14 10 28 17 32 7 5 5 8 -6 8 -14 0 -18
-8 -17 -32z"/>
<path d="M900 93 c0 -10 4 -14 8 -8 4 6 11 13 16 18 5 4 2 7 -7 7 -10 0 -17
-8 -17 -17z"/>
<path d="M994 95 c-8 -21 2 -45 20 -45 7 0 16 7 20 15 8 21 -3 45 -20 45 -8 0
-17 -7 -20 -15z m31 -15 c0 -7 -6 -15 -12 -17 -8 -3 -13 4 -13 17 0 13 5 20
13 18 6 -3 12 -11 12 -18z"/>
<path d="M1054 95 c-8 -20 2 -45 18 -44 10 0 10 2 1 6 -7 2 -13 13 -13 23 0
10 6 21 13 23 9 4 9 6 -1 6 -7 1 -15 -6 -18 -14z"/>
<path d="M1194 95 c-8 -20 2 -45 18 -44 10 0 10 2 1 6 -7 2 -13 13 -13 23 0
10 6 21 13 23 9 4 9 6 -1 6 -7 1 -15 -6 -18 -14z"/>
<path d="M1244 95 c-8 -21 2 -45 20 -45 7 0 16 7 20 15 8 21 -3 45 -20 45 -8
0 -17 -7 -20 -15z m31 -15 c0 -7 -6 -15 -12 -17 -8 -3 -13 4 -13 17 0 13 5 20
13 18 6 -3 12 -11 12 -18z"/>
<path d="M1301 77 c2 -31 2 -31 6 -4 2 15 8 27 13 27 5 0 11 -12 13 -27 l4
-28 2 28 c0 15 5 27 10 27 5 0 12 -12 14 -27 4 -27 4 -27 6 4 1 29 -1 31 -34
31 -33 0 -35 -2 -34 -31z"/>
<path d="M562 65 c-11 -12 -10 -15 3 -15 8 0 15 7 15 15 0 18 -2 18 -18 0z"/>
<path d="M912 65 c-11 -12 -10 -15 3 -15 8 0 15 7 15 15 0 18 -2 18 -18 0z"/>
<path d="M1120 71 c0 -5 5 -13 10 -16 6 -3 10 -2 10 4 0 5 -4 13 -10 16 -5 3
-10 2 -10 -4z"/>
<path d="M808 58 c5 -5 16 -8 23 -6 8 3 3 7 -10 11 -17 4 -21 3 -13 -5z"/>
</g>
</svg>
